<svg width="156" height="30" viewBox="0 0 156 30" fill="none" xmlns="http://www.w3.org/2000/svg">
<g id="IMAGE">
<g id="Group">
<path id="Vector" d="M49.0835 10.3913H53.4953C53.3598 9.18451 53.0309 8.11395 52.5085 7.17965C51.986 6.24534 51.3184 5.46676 50.5057 4.84389C49.7124 4.20156 48.8029 3.71493 47.7773 3.38403C46.7711 3.05315 45.6972 2.8877 44.5556 2.8877C42.9688 2.8877 41.537 3.16993 40.2598 3.7344C39.0021 4.29887 37.9378 5.07746 37.067 6.07016C36.1962 7.06286 35.5287 8.23074 35.0643 9.5738C34.5999 10.8974 34.3677 12.3378 34.3677 13.895C34.3677 15.4132 34.5999 16.8341 35.0643 18.1578C35.5287 19.4618 36.1962 20.6006 37.067 21.5737C37.9378 22.547 39.0021 23.3158 40.2598 23.8804C41.537 24.4253 42.9688 24.6979 44.5556 24.6979C45.8327 24.6979 47.0034 24.5032 48.0676 24.1139C49.1319 23.7246 50.0606 23.1601 50.8541 22.4204C51.6474 21.6808 52.2859 20.7854 52.7696 19.7344C53.2535 18.6832 53.5533 17.5056 53.6695 16.2015H49.2576C49.0835 17.603 48.5997 18.7319 47.8063 19.5884C47.0324 20.4448 45.9488 20.873 44.5556 20.873C43.53 20.873 42.6592 20.6783 41.9432 20.2891C41.2272 19.8803 40.6468 19.3451 40.2018 18.6832C39.7567 18.0215 39.4277 17.2818 39.2149 16.4643C39.0213 15.6273 38.9246 14.7709 38.9246 13.895C38.9246 12.9801 39.0213 12.0944 39.2149 11.238C39.4277 10.3816 39.7567 9.62246 40.2018 8.96066C40.6468 8.2794 41.2272 7.74412 41.9432 7.35483C42.6592 6.94607 43.53 6.74169 44.5556 6.74169C45.1167 6.74169 45.6488 6.83902 46.1519 7.03366C46.6744 7.20885 47.1387 7.46189 47.5451 7.79279C47.9515 8.12369 48.2902 8.51297 48.561 8.96066C48.8319 9.38888 49.006 9.86577 49.0835 10.3913ZM60.0031 16.6979C60.0031 16.0945 60.0612 15.5008 60.1772 14.9168C60.2933 14.3329 60.4868 13.8171 60.7578 13.3694C61.048 12.9217 61.4254 12.5616 61.8897 12.2891C62.3541 11.9971 62.9346 11.8512 63.6313 11.8512C64.3279 11.8512 64.9084 11.9971 65.3727 12.2891C65.8566 12.5616 66.2338 12.9217 66.5048 13.3694C66.795 13.8171 66.9981 14.3329 67.1143 14.9168C67.2304 15.5008 67.2884 16.0945 67.2884 16.6979C67.2884 17.3013 67.2304 17.8949 67.1143 18.4789C66.9981 19.0433 66.795 19.5592 66.5048 20.0263C66.2338 20.474 65.8566 20.8341 65.3727 21.1066C64.9084 21.3791 64.3279 21.5153 63.6313 21.5153C62.9346 21.5153 62.3541 21.3791 61.8897 21.1066C61.4254 20.8341 61.048 20.474 60.7578 20.0263C60.4868 19.5592 60.2933 19.0433 60.1772 18.4789C60.0612 17.8949 60.0031 17.3013 60.0031 16.6979ZM55.8815 16.6979C55.8815 17.9047 56.0654 18.9946 56.433 19.9679C56.8006 20.9412 57.3231 21.7782 58.0003 22.4789C58.6776 23.1602 59.4903 23.6857 60.4384 24.0555C61.3866 24.4253 62.4508 24.6103 63.6313 24.6103C64.8116 24.6103 65.8758 24.4253 66.824 24.0555C67.7915 23.6857 68.6139 23.1602 69.2912 22.4789C69.9684 21.7782 70.4909 20.9412 70.8585 19.9679C71.2262 18.9946 71.41 17.9047 71.41 16.6979C71.41 15.4911 71.2262 14.4011 70.8585 13.4278C70.4909 12.4351 69.9684 11.5981 69.2912 10.9169C68.6139 10.2161 67.7915 9.68086 66.824 9.31103C65.8758 8.92173 64.8116 8.72709 63.6313 8.72709C62.4508 8.72709 61.3866 8.92173 60.4384 9.31103C59.4903 9.68086 58.6776 10.2161 58.0003 10.9169C57.3231 11.5981 56.8006 12.4351 56.433 13.4278C56.0654 14.4011 55.8815 15.4911 55.8815 16.6979ZM88.1671 24.2307V9.13584H84.0455V17.0482C84.0455 18.586 83.7939 19.6954 83.2908 20.3767C82.7877 21.0385 81.975 21.3694 80.8527 21.3694C79.8658 21.3694 79.179 21.0676 78.7919 20.4643C78.4049 19.8415 78.2114 18.9071 78.2114 17.6614V9.13584H74.0898V18.4205C74.0898 19.3548 74.1672 20.2113 74.3221 20.9898C74.4962 21.749 74.7864 22.401 75.1928 22.946C75.5992 23.4716 76.1506 23.8804 76.8472 24.1723C77.5632 24.4642 78.4727 24.6103 79.5756 24.6103C80.4463 24.6103 81.2978 24.4156 82.1299 24.0263C82.9618 23.637 83.6392 23.0044 84.1617 22.1285H84.2487V24.2307H88.1671ZM91.2952 9.13584V24.2307H95.4168V17.4278C95.4168 16.7465 95.4845 16.114 95.62 15.53C95.7554 14.946 95.978 14.44 96.2876 14.0118C96.6165 13.5641 97.0422 13.2136 97.5647 12.9606C98.0872 12.7076 98.7258 12.5811 99.4804 12.5811C99.7319 12.5811 99.9931 12.6006 100.264 12.6395C100.535 12.659 100.767 12.6882 100.961 12.7271V8.87308C100.632 8.77575 100.332 8.72709 100.061 8.72709C99.5384 8.72709 99.0353 8.80494 98.5515 8.96066C98.0678 9.11638 97.6131 9.34022 97.1873 9.63219C96.7616 9.9047 96.3844 10.2453 96.0554 10.6541C95.7264 11.0434 95.4652 11.4716 95.2717 11.9388H95.2137V9.13584H91.2952ZM105.769 19.3256H101.851C101.89 20.3377 102.112 21.1844 102.519 21.8658C102.944 22.5275 103.476 23.0628 104.115 23.4716C104.773 23.8804 105.518 24.1723 106.35 24.3475C107.182 24.5226 108.033 24.6103 108.904 24.6103C109.755 24.6103 110.587 24.5226 111.4 24.3475C112.232 24.1918 112.968 23.9096 113.606 23.5008C114.245 23.092 114.758 22.5567 115.144 21.895C115.551 21.2136 115.754 20.3767 115.754 19.384C115.754 18.6832 115.619 18.0993 115.347 17.6322C115.076 17.1455 114.719 16.7465 114.274 16.4351C113.829 16.1041 113.316 15.8414 112.735 15.6468C112.174 15.4521 111.594 15.2866 110.994 15.1504C110.413 15.0142 109.842 14.8876 109.281 14.7709C108.72 14.6541 108.217 14.5275 107.772 14.3913C107.346 14.2356 106.998 14.041 106.727 13.8074C106.456 13.5738 106.321 13.272 106.321 12.9022C106.321 12.5908 106.398 12.3475 106.553 12.1723C106.708 11.9776 106.892 11.8317 107.104 11.7344C107.337 11.637 107.588 11.5786 107.859 11.5591C108.13 11.5203 108.382 11.5008 108.614 11.5008C109.349 11.5008 109.988 11.6468 110.529 11.9388C111.071 12.2113 111.371 12.7466 111.429 13.5446H115.347C115.27 12.6103 115.028 11.8414 114.622 11.238C114.235 10.6152 113.742 10.1188 113.142 9.74898C112.542 9.37915 111.855 9.11638 111.081 8.96066C110.326 8.80494 109.543 8.72709 108.73 8.72709C107.917 8.72709 107.124 8.80494 106.35 8.96066C105.576 9.09691 104.879 9.34996 104.26 9.71978C103.641 10.0701 103.138 10.5568 102.751 11.1796C102.383 11.8025 102.199 12.6006 102.199 13.5738C102.199 14.2356 102.335 14.8001 102.606 15.2673C102.876 15.715 103.234 16.0945 103.679 16.4059C104.124 16.6979 104.628 16.9411 105.189 17.1358C105.769 17.311 106.359 17.4667 106.959 17.603C108.43 17.9144 109.572 18.2258 110.384 18.5373C111.216 18.8487 111.632 19.3159 111.632 19.9387C111.632 20.3085 111.545 20.62 111.371 20.873C111.197 21.1066 110.975 21.3013 110.704 21.457C110.452 21.5932 110.162 21.7003 109.833 21.7782C109.523 21.8366 109.223 21.8658 108.933 21.8658C108.527 21.8658 108.13 21.8171 107.743 21.7198C107.375 21.6224 107.046 21.4765 106.756 21.2818C106.466 21.0676 106.224 20.8049 106.031 20.4935C105.856 20.1626 105.769 19.7733 105.769 19.3256ZM128.268 15.0628H121.562C121.581 14.7709 121.64 14.44 121.736 14.0701C121.852 13.7003 122.037 13.3499 122.288 13.019C122.559 12.6882 122.907 12.4156 123.333 12.2015C123.778 11.968 124.33 11.8512 124.987 11.8512C125.993 11.8512 126.739 12.1237 127.223 12.6687C127.725 13.2136 128.074 14.0118 128.268 15.0628ZM121.562 17.6906H132.389C132.466 16.5226 132.369 15.4034 132.099 14.3329C131.828 13.2623 131.383 12.3086 130.764 11.4716C130.164 10.6346 129.389 9.97283 128.441 9.48621C127.493 8.98013 126.381 8.72709 125.103 8.72709C123.962 8.72709 122.917 8.93146 121.969 9.34022C121.04 9.74898 120.237 10.3135 119.559 11.0337C118.882 11.7344 118.359 12.5713 117.992 13.5446C117.624 14.5178 117.44 15.5689 117.44 16.6979C117.44 17.8657 117.615 18.9363 117.964 19.9095C118.331 20.8828 118.843 21.7198 119.502 22.4204C120.159 23.1211 120.962 23.6662 121.911 24.0555C122.859 24.4253 123.923 24.6103 125.103 24.6103C126.806 24.6103 128.257 24.221 129.457 23.4424C130.657 22.6638 131.547 21.3694 132.127 19.5592H128.499C128.364 20.0263 127.996 20.474 127.396 20.9022C126.796 21.311 126.08 21.5153 125.249 21.5153C124.088 21.5153 123.198 21.2136 122.578 20.6103C121.959 20.0068 121.62 19.0336 121.562 17.6906ZM134.949 3.38403V24.2307H139.071V3.38403H134.949ZM149.718 26.0993L155.987 9.13584H151.72L148.441 19.4715H148.382L144.986 9.13584H140.604L145.858 23.2964C145.974 23.5883 146.031 23.8998 146.031 24.2307C146.031 24.6784 145.896 25.0872 145.625 25.457C145.374 25.8268 144.977 26.041 144.435 26.0993C144.028 26.1187 143.622 26.109 143.216 26.0702C142.81 26.0312 142.413 25.9923 142.025 25.9533V29.3693C142.452 29.4083 142.867 29.4375 143.275 29.4569C143.7 29.4959 144.126 29.5153 144.551 29.5153C145.963 29.5153 147.067 29.2526 147.86 28.727C148.653 28.2015 149.272 27.3255 149.718 26.0993Z" fill="#333B4A"/>
<path id="Vector_2" d="M29.8235 13.8461L11.7574 25.8372V1.85498L29.8235 13.8461Z" fill="#017CFF"/>
<path id="Vector_3" d="M19.5 13.8461L1.43382 25.8372V1.85498L19.5 13.8461Z" fill="#E48D8B"/>
</g>
</g>
</svg>
