<svg width="40" height="40" viewBox="0 0 40 40" fill="none" xmlns="http://www.w3.org/2000/svg">
<g id="IMAGE">
<path id="Vector" d="M15 13.7501C14.9971 14.1521 15.018 14.5538 15.0625 14.9532L3.37504 30.8907C3.02107 31.3728 2.85166 31.9658 2.89754 32.5621C2.9434 33.1583 3.20151 33.7185 3.62504 34.1407L5.85941 36.3751C6.28167 36.7986 6.84176 37.0567 7.43806 37.1026C8.03436 37.1485 8.62735 36.9791 9.10941 36.6251L25.0469 24.9376C25.4464 24.9822 25.8481 25.0031 26.25 25.0001C28.5464 25.0003 30.7876 24.2968 32.6719 22.9845C32.7461 22.9317 32.808 22.8633 32.853 22.7842C32.8981 22.705 32.9252 22.617 32.9327 22.5261C32.9402 22.4353 32.9277 22.344 32.8961 22.2585C32.8646 22.1731 32.8147 22.0956 32.75 22.0313L17.9687 7.25012C17.9046 7.18544 17.8271 7.13558 17.7416 7.10402C17.6561 7.07245 17.5649 7.05997 17.474 7.0674C17.3832 7.07484 17.2951 7.10205 17.216 7.1471C17.1367 7.19217 17.0685 7.25399 17.0156 7.32824C15.7032 9.21257 14.9997 11.4538 15 13.7501ZM17.7656 24.0157L14.6406 27.1407C14.4017 27.3717 14.0824 27.501 13.75 27.501C13.4176 27.501 13.0984 27.3717 12.8594 27.1407C12.6246 26.9037 12.493 26.5837 12.493 26.2501C12.493 25.9166 12.6246 25.5965 12.8594 25.3595L15.9844 22.2345C16.2272 22.0352 16.5356 21.9333 16.8494 21.9487C17.1632 21.9641 17.4601 22.0957 17.6822 22.3178C17.9045 22.5401 18.036 22.837 18.0515 23.1507C18.0669 23.4646 17.965 23.7728 17.7656 24.0157ZM37.4844 13.1251C37.6226 15.6315 36.9185 18.112 35.4844 20.172C35.4316 20.2462 35.3632 20.3081 35.2841 20.3531C35.2049 20.3982 35.1169 20.4253 35.026 20.4328C34.9352 20.4403 34.8439 20.4278 34.7585 20.3962C34.673 20.3647 34.5955 20.3148 34.5312 20.2501L19.75 5.46887C19.6854 5.4047 19.6355 5.32718 19.6039 5.24172C19.5724 5.15625 19.5599 5.06493 19.5674 4.97413C19.5747 4.88333 19.602 4.79525 19.647 4.71608C19.6921 4.63689 19.7539 4.56852 19.8281 4.51574C21.4716 3.37267 23.3904 2.68884 25.3862 2.53482C27.3822 2.38079 29.3831 2.76215 31.1825 3.63955C32.9819 4.51694 34.5146 5.85859 35.6224 7.52604C36.7301 9.19348 37.373 11.1263 37.4844 13.1251Z" fill="#017CFF"/>
</g>
</svg>
