<svg xmlns="http://www.w3.org/2000/svg" width="40" height="41" viewBox="0 0 40 41" fill="none">
<path d="M28.75 14.5625V13.6875C28.75 9.76562 22.8438 6.8125 15 6.8125C7.15625 6.8125 1.25 9.76562 1.25 13.6875V19.9375C1.25 23.2031 5.34375 25.7969 11.25 26.5781V27.4375C11.25 31.3594 17.1562 34.3125 25 34.3125C32.8438 34.3125 38.75 31.3594 38.75 27.4375V21.1875C38.75 17.9531 34.7812 15.3594 28.75 14.5625ZM11.25 24.0312V20.3281C12.4936 20.4879 13.7463 20.5662 15 20.5625C16.2537 20.5662 17.5065 20.4879 18.75 20.3281V24.0312C17.5095 24.2245 16.2555 24.3186 15 24.3125C13.7445 24.3186 12.4905 24.2245 11.25 24.0312ZM26.25 17.7344V19.9375C26.25 21.25 24.3125 22.6562 21.25 23.5156V19.8594C23.2656 19.375 24.9688 18.6406 26.25 17.7344ZM3.75 19.9375V17.7344C5.03125 18.6406 6.73438 19.375 8.75 19.8594V23.5156C5.6875 22.6562 3.75 21.25 3.75 19.9375ZM13.75 27.4375V26.7812L15 26.8125C15.6146 26.8125 16.2084 26.7969 16.7812 26.7656C17.4062 26.9844 18.0625 27.1719 18.75 27.3438V31.0156C15.6875 30.1562 13.75 28.75 13.75 27.4375ZM21.25 31.5312V27.8125C22.4934 27.9756 23.746 28.0591 25 28.0625C26.2537 28.0662 27.5065 27.9879 28.75 27.8281V31.5312C26.2641 31.9062 23.7359 31.9062 21.25 31.5312ZM31.25 31.0156V27.3594C33.2656 26.875 34.9688 26.1406 36.25 25.2344V27.4375C36.25 28.75 34.3125 30.1562 31.25 31.0156Z" fill="#017CFF"/>
</svg>