<svg xmlns="http://www.w3.org/2000/svg" width="40" height="41" viewBox="0 0 40 41" fill="none">
<path d="M9.99999 22.4375C10.0021 22.6022 9.97119 22.7657 9.90911 22.9184C9.84704 23.071 9.75504 23.2096 9.63855 23.3261C9.52205 23.4426 9.38341 23.5345 9.23081 23.5966C9.07821 23.6587 8.91473 23.6896 8.74999 23.6875H1.87499C1.64276 23.6856 1.41543 23.6206 1.21727 23.4996C1.01912 23.3785 0.857598 23.2057 0.749988 23C0.649922 22.7905 0.608694 22.5576 0.630711 22.3265C0.652727 22.0952 0.737164 21.8743 0.874988 21.6875C1.98121 20.2025 3.45735 19.0335 5.15624 18.2968C4.42623 17.6286 3.86534 16.7966 3.51975 15.8692C3.17416 14.9418 3.05374 13.9456 3.1684 12.9626C3.28306 11.9796 3.62953 11.0379 4.17928 10.2149C4.72903 9.39197 5.46635 8.71135 6.33056 8.22906C7.19478 7.74677 8.16116 7.47661 9.15019 7.4408C10.1392 7.405 11.1226 7.60457 12.0194 8.02311C12.9163 8.44165 13.7009 9.06717 14.3086 9.84821C14.9165 10.6292 15.3301 11.5435 15.5156 12.5156C15.5619 12.7688 15.5298 13.0301 15.4236 13.2646C15.3176 13.4991 15.1425 13.6957 14.9219 13.8281C12.901 15.0265 11.364 16.8952 10.5781 19.1093C10.1907 20.176 9.99499 21.3027 9.99999 22.4375ZM39.125 21.6875C38.0188 20.2025 36.5426 19.0335 34.8438 18.2968C35.5738 17.6286 36.1346 16.7966 36.4803 15.8692C36.8258 14.9418 36.9463 13.9456 36.8316 12.9626C36.7169 11.9796 36.3704 11.0379 35.8206 10.2149C35.2709 9.39197 34.5336 8.71135 33.6694 8.22906C32.8051 7.74677 31.8388 7.47661 30.8498 7.4408C29.8608 7.405 28.8774 7.60457 27.9805 8.02311C27.0838 8.44165 26.2991 9.06717 25.6913 9.84821C25.0835 10.6292 24.6698 11.5435 24.4844 12.5156C24.4381 12.7688 24.4701 13.0301 24.5763 13.2646C24.6824 13.4991 24.8574 13.6957 25.0781 13.8281C27.1016 15.0233 28.6395 16.8932 29.4219 19.1093C29.8093 20.176 30.005 21.3027 30 22.4375C29.9979 22.6022 30.0288 22.7657 30.0909 22.9184C30.1529 23.071 30.2449 23.2096 30.3614 23.3261C30.4779 23.4426 30.6165 23.5345 30.7691 23.5966C30.9218 23.6587 31.0853 23.6896 31.25 23.6875H38.125C38.3571 23.6875 38.5846 23.6229 38.7821 23.5009C38.9796 23.3787 39.1393 23.2041 39.243 22.9965C39.3469 22.7889 39.3908 22.5565 39.3699 22.3252C39.3491 22.094 39.2643 21.8732 39.125 21.6875ZM24.5625 28.3906C25.8065 27.4371 26.7205 26.1177 27.1761 24.6181C27.6318 23.1183 27.606 21.5135 27.1026 20.0291C26.5991 18.5447 25.6434 17.2553 24.3694 16.3422C23.0954 15.4291 21.5674 14.938 20 14.938C18.4325 14.938 16.9045 15.4291 15.6306 16.3422C14.3566 17.2553 13.4008 18.5447 12.8974 20.0291C12.3939 21.5135 12.3682 23.1183 12.8238 24.6181C13.2794 26.1177 14.1935 27.4371 15.4375 28.3906C13.007 29.4696 11.0367 31.3736 9.87499 33.7656C9.78255 33.9557 9.74116 34.1666 9.75485 34.3775C9.76855 34.5885 9.83688 34.7922 9.95311 34.9687C10.0613 35.1498 10.2146 35.2997 10.3982 35.4039C10.5817 35.508 10.789 35.5626 11 35.5625H29C29.2109 35.5626 29.4183 35.508 29.6019 35.4039C29.7854 35.2997 29.9386 35.1498 30.0469 34.9687C30.1631 34.7922 30.2314 34.5885 30.2451 34.3775C30.2588 34.1666 30.2174 33.9557 30.125 33.7656C28.9633 31.3736 26.9929 29.4696 24.5625 28.3906Z" fill="#017CFF"/>
</svg>