<svg width="40" height="40" viewBox="0 0 40 40" fill="none" xmlns="http://www.w3.org/2000/svg">
<g id="IMAGE">
<path id="Vector" d="M9.99999 21.8748C10.0021 22.0395 9.97119 22.203 9.90911 22.3557C9.84704 22.5083 9.75504 22.6469 9.63855 22.7634C9.52205 22.8799 9.38342 22.9718 9.23081 23.0339C9.07821 23.096 8.91473 23.1269 8.74999 23.1248H1.87499C1.64276 23.1229 1.41543 23.0579 1.21727 22.9369C1.01912 22.8158 0.857599 22.643 0.749988 22.4373C0.649922 22.2278 0.608694 21.9949 0.630711 21.7638C0.652727 21.5325 0.737164 21.3117 0.874989 21.1248C1.98121 19.6398 3.45735 18.4708 5.15624 17.7342C4.42623 17.0659 3.86534 16.2339 3.51975 15.3065C3.17416 14.3792 3.05374 13.3829 3.1684 12.3999C3.28306 11.4169 3.62953 10.4752 4.17928 9.65224C4.72903 8.82929 5.46635 8.14866 6.33056 7.66638C7.19478 7.18409 8.16116 6.91393 9.15019 6.87811C10.1392 6.84231 11.1226 7.04189 12.0194 7.46043C12.9163 7.87896 13.7009 8.50449 14.3086 9.28553C14.9165 10.0666 15.3301 10.9808 15.5156 11.9529C15.5619 12.2061 15.5298 12.4674 15.4236 12.7019C15.3176 12.9364 15.1425 13.133 14.9219 13.2654C12.901 14.4638 11.364 16.3325 10.5781 18.5467C10.1907 19.6133 9.99499 20.74 9.99999 21.8748ZM39.125 21.1248C38.0188 19.6398 36.5426 18.4708 34.8438 17.7342C35.5738 17.0659 36.1346 16.2339 36.4803 15.3065C36.8258 14.3792 36.9463 13.3829 36.8316 12.3999C36.7169 11.4169 36.3704 10.4752 35.8206 9.65224C35.2709 8.82929 34.5336 8.14866 33.6694 7.66638C32.8051 7.18409 31.8388 6.91393 30.8498 6.87811C29.8608 6.84231 28.8774 7.04189 27.9805 7.46043C27.0838 7.87896 26.2991 8.50449 25.6913 9.28553C25.0835 10.0666 24.6698 10.9808 24.4844 11.9529C24.4381 12.2061 24.4701 12.4674 24.5763 12.7019C24.6824 12.9364 24.8574 13.133 25.0781 13.2654C27.1016 14.4607 28.6395 16.3305 29.4219 18.5467C29.8093 19.6133 30.005 20.74 30 21.8748C29.9979 22.0395 30.0288 22.203 30.0909 22.3557C30.1529 22.5083 30.2449 22.6469 30.3614 22.7634C30.4779 22.8799 30.6165 22.9718 30.7691 23.0339C30.9218 23.096 31.0853 23.1269 31.25 23.1248H38.125C38.3571 23.1248 38.5846 23.0602 38.7821 22.9382C38.9796 22.816 39.1393 22.6414 39.243 22.4338C39.3469 22.2262 39.3908 21.9938 39.3699 21.7625C39.3491 21.5313 39.2643 21.3105 39.125 21.1248ZM24.5625 27.8279C25.8065 26.8744 26.7205 25.555 27.1761 24.0554C27.6318 22.5557 27.606 20.9508 27.1026 19.4664C26.5991 17.982 25.6434 16.6927 24.3694 15.7795C23.0954 14.8664 21.5674 14.3753 20 14.3753C18.4325 14.3753 16.9045 14.8664 15.6306 15.7795C14.3566 16.6927 13.4008 17.982 12.8974 19.4664C12.3939 20.9508 12.3682 22.5557 12.8238 24.0554C13.2794 25.555 14.1935 26.8744 15.4375 27.8279C13.007 28.9069 11.0367 30.8109 9.87499 33.2029C9.78255 33.393 9.74117 33.6039 9.75485 33.8148C9.76855 34.0258 9.83688 34.2295 9.95311 34.406C10.0613 34.5872 10.2146 34.737 10.3982 34.8412C10.5817 34.9453 10.789 34.9999 11 34.9998H29C29.2109 34.9999 29.4183 34.9453 29.6019 34.8412C29.7854 34.737 29.9386 34.5872 30.0469 34.406C30.1631 34.2295 30.2314 34.0258 30.2451 33.8148C30.2588 33.6039 30.2174 33.393 30.125 33.2029C28.9633 30.8109 26.9929 28.9069 24.5625 27.8279Z" fill="#017CFF"/>
</g>
</svg>
